PathFileType	4	(X/Y/Z)	s02c0401.trc
DataRate	CameraRate	NumFrames	NumMarkers	Units	OrigDataRate	OrigDataStartFrame	OrigNumFrames
200	200	4	50	mm	200	250	2000
Frame#	Time	racr			lacr			c7			jug			rlel			rdr			llel			ldr			s2			lic			ric			lasi			rasi			rpsi			lpsi			rgt			lgt			rth1			rth2			rth3			rth4			rlfc			rmfc			rsh1			rsh2			rsh3			rsh4			rlmal			rmmal			rtoe			rmt5			rmt1			lth1			lth2			lth4			lth3			llfc			lmfc			lsh1			lsh2			lsh3			lsh4			llmal			lmmal			lcal			ltoe			lmt5			SBIKE			LBIKE			RBIKE			
		X1	Y1	Z1	X2	Y2	Z2	X3	Y3	Z3	X4	Y4	Z4	X5	Y5	Z5	X6	Y6	Z6	X7	Y7	Z7	X8	Y8	Z8	X9	Y9	Z9	X10	Y10	Z10	X11	Y11	Z11	X12	Y12	Z12	X13	Y13	Z13	X14	Y14	Z14	X15	Y15	Z15	X16	Y16	Z16	X17	Y17	Z17	X18	Y18	Z18	X19	Y19	Z19	X20	Y20	Z20	X21	Y21	Z21	X22	Y22	Z22	X23	Y23	Z23	X24	Y24	Z24	X25	Y25	Z25	X26	Y26	Z26	X27	Y27	Z27	X28	Y28	Z28	X29	Y29	Z29	X30	Y30	Z30	X31	Y31	Z31	X32	Y32	Z32	X33	Y33	Z33	X34	Y34	Z34	X35	Y35	Z35	X36	Y36	Z36	X37	Y37	Z37	X38	Y38	Z38	X39	Y39	Z39	X40	Y40	Z40	X41	Y41	Z41	X42	Y42	Z42	X43	Y43	Z43	X44	Y44	Z44	X45	Y45	Z45	X46	Y46	Z46	X47	Y47	Z47	X48	Y48	Z48	X49	Y49	Z49	X50	Y50	Z50	
250	1.2500	467.882854	1319.443883	-152.239272	470.273452	1324.008908	-499.888643	477.144618	1359.527592	-332.108006	429.673017	1233.403533	-332.805323	588.796796	1072.689059	-135.930820	715.660008	882.282439	-136.198444	568.237491	1064.253642	-532.840115	702.602098	880.077999	-516.710060	0.097515	1091.268872	-326.555313	142.242486	1098.098136	-465.625777	127.235420	1115.852857	-189.010535	190.459347	1069.018460	-441.638616	176.915400	1084.033938	-209.782111	15.922221	1131.916930	-286.315824	22.767189	1134.754417	-371.653920	111.813731	1035.459573	-141.128114	91.299894	997.209522	-495.875580	198.281257	1013.658809	-138.303226	286.253808	1008.138244	-145.168556	360.017788	971.873757	-119.599882	294.971437	1030.095913	-174.786634	485.078102	887.757318	-150.446639	480.424533	867.894473	-263.805165	461.743802	776.788621	-136.376867	435.200422	693.781858	-156.033974	376.854937	630.286150	-150.090095	445.991799	690.029614	-194.273637	306.188601	533.364760	-155.851587	313.862189	552.281594	-236.648515	521.070450	473.237991	-194.601741	407.147554	458.964742	-135.665242	434.144217	472.427013	-243.889273	190.230617	896.717102	-515.012974	254.950931	838.236338	-515.481061	283.441613	856.342967	-499.814835	279.905887	752.646773	-515.953511	330.586944	665.000225	-495.508341	338.714868	636.290979	-392.633405	282.167880	571.539385	-512.931707	257.778730	490.126291	-495.219749	192.676126	427.671886	-493.912868	278.262089	482.472370	-460.312710	127.339150	346.940506	-474.134720	145.829833	336.490529	-397.723647	51.051790	333.895780	-432.148606	283.499653	166.383264	-445.548311	180.352570	204.430406	-503.084521	-165.127433	858.161844	-315.679553	32.935683	82.032000	-515.235639	33.066505	82.088340	-115.190689	
251	1.2550	467.902552	1319.456623	-152.248444	470.272201	1324.028896	-499.892373	477.152192	1359.519055	-332.121519	429.658447	1233.387411	-332.835276	588.825082	1072.702148	-135.942075	715.650682	882.269818	-136.196869	568.243325	1064.265395	-532.821647	702.606638	880.088641	-516.714614	0.084853	1091.285517	-326.535752	142.228065	1098.111165	-465.629671	127.227744	1115.837688	-188.985483	190.453816	1069.040623	-441.659418	176.878954	1084.065069	-209.767261	15.903596	1131.942898	-286.290767	22.763719	1134.766188	-371.676666	111.794435	1035.468711	-141.130147	91.307709	997.239453	-495.880051	198.252937	1013.658625	-138.281726	286.236816	1008.143956	-145.164278	359.985706	971.866518	-119.618645	294.945382	1030.107822	-174.793013	485.055083	887.765122	-150.462043	480.376068	867.929622	-263.791590	461.710723	776.785297	-136.380196	435.183655	693.840250	-156.014532	376.812410	630.312163	-150.088609	445.940604	690.049679	-194.304347	306.148696	533.375877	-155.828923	313.843687	552.286531	-236.656624	521.042095	473.253946	-194.598780	407.122446	458.981046	-135.668019	434.118050	472.441983	-243.883820	190.275632	896.769391	-515.000738	254.978508	838.308831	-515.468633	283.481712	856.412232	-499.772730	279.948280	752.708235	-515.953508	330.626851	665.055145	-495.531334	338.745045	636.322071	-392.659318	282.217540	571.569878	-512.934647	257.828667	490.128805	-495.232862	192.750790	427.679824	-493.937714	278.316940	482.491150	-460.343766	127.424399	346.935043	-474.163602	145.890775	336.434977	-397.760902	51.155094	333.940721	-432.178740	283.514011	166.315977	-445.553237	180.394396	204.404288	-503.096591	-165.181821	858.191615	-315.594618	32.931366	82.000307	-515.282579	33.073698	82.088102	-115.191755	
252	1.2600	467.928905	1319.455574	-152.271519	470.279632	1324.038156	-499.879940	477.152548	1359.509738	-332.126235	429.657193	1233.418045	-332.835861	588.846990	1072.701778	-135.942496	715.666945	882.286323	-136.193813	568.243094	1064.265895	-532.805840	702.620636	880.081033	-516.704933	0.063637	1091.308348	-326.520840	142.220909	1098.133594	-465.619057	127.215798	1115.828612	-188.990523	190.455040	1069.049903	-441.659110	176.876473	1084.067898	-209.764761	15.885400	1131.960313	-286.266801	22.979464	1134.922645	-372.027634	111.771875	1035.483557	-141.135650	91.320088	997.250395	-495.856382	198.238753	1013.655916	-138.277340	286.205278	1008.157919	-145.165943	359.939462	971.908313	-119.613018	294.924434	1030.099998	-174.808806	485.055204	887.774490	-150.465740	480.369036	867.948775	-263.821860	461.696142	776.768277	-136.400781	435.134663	693.857969	-156.026746	376.794058	630.322682	-150.107814	445.947276	690.051679	-194.277167	306.125662	533.377808	-155.853128	313.821200	552.293403	-236.674024	521.035927	473.283574	-194.599360	407.084258	458.999833	-135.669393	434.112620	472.466946	-243.872982	190.305575	896.810819	-514.973601	255.018712	838.347229	-515.438873	283.511576	856.441176	-499.742252	279.987001	752.743474	-515.950932	330.654088	665.082411	-495.547728	338.773959	636.337253	-392.682828	282.252020	571.584216	-512.949651	257.869047	490.165156	-495.261165	192.795607	427.691194	-493.946525	278.364087	482.523526	-460.362204	127.495586	346.934638	-474.182610	145.963099	336.513887	-397.758310	51.231691	333.962625	-432.215836	283.544627	166.290504	-445.552153	180.434931	204.369048	-503.079334	-165.124644	858.200313	-315.576532	32.937353	81.987598	-515.275136	33.076280	82.097055	-115.194928	
253	1.2650	467.931012	1319.444681	-152.274818	470.269926	1324.045811	-499.840796	477.145305	1359.508080	-332.134613	429.643169	1233.385380	-332.858934	588.879031	1072.713251	-135.971547	715.676452	882.268730	-136.173939	568.263645	1064.263068	-532.793661	702.617743	880.097853	-516.700717	0.029718	1091.315326	-326.518534	142.195341	1098.135492	-465.625569	127.196542	1115.839629	-188.986973	190.437860	1069.075919	-441.657352	176.844892	1084.066912	-209.765948	15.886272	1131.973111	-286.269114	22.972596	1134.932569	-372.052198	111.741221	1035.490407	-141.119515	91.345777	997.271836	-495.883244	198.206297	1013.670578	-138.275676	286.185121	1008.157660	-145.167753	359.928203	971.905327	-119.634162	294.909577	1030.116632	-174.790478	485.029222	887.792330	-150.478060	480.341891	867.956023	-263.823597	461.645380	776.811627	-136.384561	435.157959	693.886387	-155.986350	376.776272	630.349419	-150.093010	445.911142	690.044904	-194.291557	306.119587	533.395781	-155.864185	313.788174	552.299957	-236.664046	520.993558	473.300989	-194.615061	407.095948	459.004535	-135.687127	434.091681	472.487266	-243.887945	190.344518	896.859933	-514.946972	255.057030	838.379898	-515.429893	283.543887	856.486328	-499.700518	280.016169	752.776332	-515.941265	330.674519	665.088042	-495.560341	338.796002	636.325179	-392.688773	282.267016	571.588319	-512.969713	257.900585	490.175363	-495.277604	192.830115	427.695231	-493.959885	278.385711	482.514360	-460.381508	127.536593	346.930282	-474.192598	146.047636	336.552508	-397.770773	51.281712	333.958669	-432.221662	283.553175	166.236204	-445.544229	180.446835	204.355060	-503.087863	-165.185771	858.155353	-315.638836	32.945456	82.005307	-515.292202	33.072129	82.086404	-115.186921	
